# xmcd CD database file
#
# Track frame offsets:
#	150
#	18302
#	35375
#	53462
#	69340
#	87772
#	110460
#	124050
#	129472
#	155350
#
# Disc length: 2443 seconds
#
# Revision: 0
# Processed by: cddbd v1.4PL0 Copyright (c) Steve Scherf et al.
# Submitted via: CDex 1.40Release
#
DISCID=7209890a
DTITLE=Stars - Land Of Fortune
DYEAR=1900
DGENRE=Country
TTITLE0=Land Of Fortune
TTITLE1=Red Neck Boogie
TTITLE2=Gold Fever
TTITLE3=Lats Of The River Boats
TTITLE4=Innocent Bystanders
TTITLE5=Wasted Words
TTITLE6=In And Out Of Love
TTITLE7=All Good Things Will Come To You In Time
TTITLE8=I'm Ready
TTITLE9=Never Coming Back
EXTD=ID3G: 2
EXTT0=
EXTT1=
EXTT2=
EXTT3=
EXTT4=
EXTT5=
EXTT6=
EXTT7=
EXTT8=
EXTT9=
PLAYORDER=
